#Comment line ignore any data following # character 
#Hierarchical Translation and Rotation (.htr) file 
[Header]	
#Header keywords are followed by a single value 
FileType HTR		#Single word string
DataType HTRS		#Translation followed by rotation and scale data
FileVersion 1		#integer
NumSegments 84		#integer
NumFrames 2		#integer
DataFrameRate 30		#integer, data frame rate in this file
EulerRotationOrder ZYX
CalibrationUnits mm
RotationUnits Degrees
GlobalAxisofGravity Y
BoneLengthAxis Y
ScaleFactor 1.00
[SegmentNames&Hierarchy]
#CHILD	PARENT
MASTER GLOBAL
root MASTER
chest root
L_mid_tent01 root
R_mid_tent01 root
spine01 root
Bip01_Neck chest
L_humerus chest
R_humerus chest
weapon_bone chest
Bip01_Head Bip01_Neck
eye_left_bone Bip01_Head
eye_right_bone Bip01_Head
L_forearm L_humerus
L_front_hand L_forearm
L_weapon_bone L_forearm
L_front_hand01_01 L_front_hand
L_front_hand02_01 L_front_hand
L_front_hand03_01 L_front_hand
L_front_hand01_02 L_front_hand01_01
L_front_hand02_02 L_front_hand02_01
L_front_hand03_02 L_front_hand03_01
R_forearm R_humerus
R_front_hand R_forearm
R_weapon_bone R_forearm
R_front_hand01_01 R_front_hand
R_front_hand02_01 R_front_hand
R_front_hand03_01 R_front_hand
R_front_hand01_02 R_front_hand01_01
R_front_hand02_02 R_front_hand02_01
R_front_hand03_02 R_front_hand03_01
null_rope01_connect L_mid_tent01
Rope1_Seg01 null_rope01_connect
Rope1_Seg02 Rope1_Seg01
Rope1_Seg03 Rope1_Seg02
Rope1_Seg04 Rope1_Seg03
Rope1_Seg05 Rope1_Seg04
Rope1_Seg06 Rope1_Seg05
Rope1_Seg07 Rope1_Seg06
Rope1_Seg09 Rope1_Seg07
L_mid_hand01 Rope1_Seg09
L_mid_hand02 Rope1_Seg09
L_mid_hand03 Rope1_Seg09
null_rope02_connect R_mid_tent01
Rope2_Seg01 null_rope02_connect
Rope2_Seg02 Rope2_Seg01
Rope2_Seg03 Rope2_Seg02
Rope2_Seg04 Rope2_Seg03
Rope2_Seg05 Rope2_Seg04
Rope2_Seg06 Rope2_Seg05
Rope2_Seg07 Rope2_Seg06
Rope2_Seg09 Rope2_Seg07
R_mid_hand01 Rope2_Seg09
R_mid_hand02 Rope2_Seg09
R_mid_hand03 Rope2_Seg09
spine02 spine01
spine03 spine02
pelvis spine03
null_rope03_connect pelvis
null_rope04_connect pelvis
Rope3_Seg01 null_rope03_connect
Rope3_Seg02 Rope3_Seg01
Rope3_Seg03 Rope3_Seg02
Rope3_Seg04 Rope3_Seg03
Rope3_Seg05 Rope3_Seg04
Rope3_Seg06 Rope3_Seg05
Rope3_Seg07 Rope3_Seg06
Rope3_Seg08 Rope3_Seg07
Rope3_Seg09 Rope3_Seg08
R_rear_hand01 Rope3_Seg09
R_rear_hand02 Rope3_Seg09
R_rear_hand03 Rope3_Seg09
Rope4_Seg01 null_rope04_connect
Rope4_Seg02 Rope4_Seg01
Rope4_Seg03 Rope4_Seg02
Rope4_Seg04 Rope4_Seg03
Rope4_Seg05 Rope4_Seg04
Rope4_Seg06 Rope4_Seg05
Rope4_Seg07 Rope4_Seg06
Rope4_Seg08 Rope4_Seg07
Rope4_Seg09 Rope4_Seg08
L_rear_hand01 Rope4_Seg09
L_rear_hand02 Rope4_Seg09
L_rear_hand03 Rope4_Seg09
[BasePosition]
#SegmentName Tx, Ty, Tz, Rx, Ry, Rz, BoneLength
MASTER 0.000000 0.000000 0.000000 -90.000000 0.000000 0.000000 10.000000 
root 0.000000 0.000000 0.000000 0.000000 0.000000 0.000000 10.000000 
chest 0.000000 0.000000 0.000000 0.000000 0.000000 0.000000 10.000000 
L_mid_tent01 0.000000 0.000000 0.000000 0.000000 0.000000 0.000000 10.000000 
R_mid_tent01 0.000000 0.000000 0.000000 0.000000 0.000000 0.000000 10.000000 
spine01 0.000000 0.000000 0.000000 0.000000 0.000000 0.000000 10.000000 
Bip01_Neck 0.000000 0.000000 0.000000 0.000000 0.000000 0.000000 10.000000 
L_humerus 0.000000 0.000000 0.000000 0.000000 0.000000 0.000000 10.000000 
R_humerus 0.000000 0.000000 0.000000 0.000000 0.000000 0.000000 10.000000 
weapon_bone 0.000000 0.000000 0.000000 0.000000 0.000000 0.000000 10.000000 
Bip01_Head 0.000000 0.000000 0.000000 0.000000 0.000000 0.000000 10.000000 
eye_left_bone 0.000000 0.000000 0.000000 0.000000 0.000000 0.000000 10.000000 
eye_right_bone 0.000000 0.000000 0.000000 0.000000 0.000000 0.000000 10.000000 
L_forearm 0.000000 0.000000 0.000000 0.000000 0.000000 0.000000 10.000000 
L_front_hand 0.000000 0.000000 0.000000 0.000000 0.000000 0.000000 10.000000 
L_weapon_bone 0.000000 0.000000 0.000000 0.000000 0.000000 0.000000 10.000000 
L_front_hand01_01 0.000000 0.000000 0.000000 0.000000 0.000000 0.000000 10.000000 
L_front_hand02_01 0.000000 0.000000 0.000000 0.000000 0.000000 0.000000 10.000000 
L_front_hand03_01 0.000000 0.000000 0.000000 0.000000 0.000000 0.000000 10.000000 
L_front_hand01_02 0.000000 0.000000 0.000000 0.000000 0.000000 0.000000 10.000000 
L_front_hand02_02 0.000000 0.000000 0.000000 0.000000 0.000000 0.000000 10.000000 
L_front_hand03_02 0.000000 0.000000 0.000000 0.000000 0.000000 0.000000 10.000000 
R_forearm 0.000000 0.000000 0.000000 0.000000 0.000000 0.000000 10.000000 
R_front_hand 0.000000 0.000000 0.000000 0.000000 0.000000 0.000000 10.000000 
R_weapon_bone 0.000000 0.000000 0.000000 0.000000 0.000000 0.000000 10.000000 
R_front_hand01_01 0.000000 0.000000 0.000000 0.000000 0.000000 0.000000 10.000000 
R_front_hand02_01 0.000000 0.000000 0.000000 0.000000 0.000000 0.000000 10.000000 
R_front_hand03_01 0.000000 0.000000 0.000000 0.000000 0.000000 0.000000 10.000000 
R_front_hand01_02 0.000000 0.000000 0.000000 0.000000 0.000000 0.000000 10.000000 
R_front_hand02_02 0.000000 0.000000 0.000000 0.000000 0.000000 0.000000 10.000000 
R_front_hand03_02 0.000000 0.000000 0.000000 0.000000 0.000000 0.000000 10.000000 
null_rope01_connect 0.000000 0.000000 0.000000 0.000000 0.000000 0.000000 10.000000 
Rope1_Seg01 0.000000 0.000000 0.000000 0.000000 0.000000 0.000000 10.000000 
Rope1_Seg02 0.000000 0.000000 0.000000 0.000000 0.000000 0.000000 10.000000 
Rope1_Seg03 0.000000 0.000000 0.000000 0.000000 0.000000 0.000000 10.000000 
Rope1_Seg04 0.000000 0.000000 0.000000 0.000000 0.000000 0.000000 10.000000 
Rope1_Seg05 0.000000 0.000000 0.000000 0.000000 0.000000 0.000000 10.000000 
Rope1_Seg06 0.000000 0.000000 0.000000 0.000000 0.000000 0.000000 10.000000 
Rope1_Seg07 0.000000 0.000000 0.000000 0.000000 0.000000 0.000000 10.000000 
Rope1_Seg09 0.000000 0.000000 0.000000 0.000000 0.000000 0.000000 10.000000 
L_mid_hand01 0.000000 0.000000 0.000000 0.000000 0.000000 0.000000 10.000000 
L_mid_hand02 0.000000 0.000000 0.000000 0.000000 0.000000 0.000000 10.000000 
L_mid_hand03 0.000000 0.000000 0.000000 0.000000 0.000000 0.000000 10.000000 
null_rope02_connect 0.000000 0.000000 0.000000 0.000000 0.000000 0.000000 10.000000 
Rope2_Seg01 0.000000 0.000000 0.000000 0.000000 0.000000 0.000000 10.000000 
Rope2_Seg02 0.000000 0.000000 0.000000 0.000000 0.000000 0.000000 10.000000 
Rope2_Seg03 0.000000 0.000000 0.000000 0.000000 0.000000 0.000000 10.000000 
Rope2_Seg04 0.000000 0.000000 0.000000 0.000000 0.000000 0.000000 10.000000 
Rope2_Seg05 0.000000 0.000000 0.000000 0.000000 0.000000 0.000000 10.000000 
Rope2_Seg06 0.000000 0.000000 0.000000 0.000000 0.000000 0.000000 10.000000 
Rope2_Seg07 0.000000 0.000000 0.000000 0.000000 0.000000 0.000000 10.000000 
Rope2_Seg09 0.000000 0.000000 0.000000 0.000000 0.000000 0.000000 10.000000 
R_mid_hand01 0.000000 0.000000 0.000000 0.000000 0.000000 0.000000 10.000000 
R_mid_hand02 0.000000 0.000000 0.000000 0.000000 0.000000 0.000000 10.000000 
R_mid_hand03 0.000000 0.000000 0.000000 0.000000 0.000000 0.000000 10.000000 
spine02 0.000000 0.000000 0.000000 0.000000 0.000000 0.000000 10.000000 
spine03 0.000000 0.000000 0.000000 0.000000 0.000000 0.000000 10.000000 
pelvis 0.000000 0.000000 0.000000 0.000000 0.000000 0.000000 10.000000 
null_rope03_connect 0.000000 0.000000 0.000000 0.000000 0.000000 0.000000 10.000000 
null_rope04_connect 0.000000 0.000000 0.000000 0.000000 0.000000 0.000000 10.000000 
Rope3_Seg01 0.000000 0.000000 0.000000 0.000000 0.000000 0.000000 10.000000 
Rope3_Seg02 0.000000 0.000000 0.000000 0.000000 0.000000 0.000000 10.000000 
Rope3_Seg03 0.000000 0.000000 0.000000 0.000000 0.000000 0.000000 10.000000 
Rope3_Seg04 0.000000 0.000000 0.000000 0.000000 0.000000 0.000000 10.000000 
Rope3_Seg05 0.000000 0.000000 0.000000 0.000000 0.000000 0.000000 10.000000 
Rope3_Seg06 0.000000 0.000000 0.000000 0.000000 0.000000 0.000000 10.000000 
Rope3_Seg07 0.000000 0.000000 0.000000 0.000000 0.000000 0.000000 10.000000 
Rope3_Seg08 0.000000 0.000000 0.000000 0.000000 0.000000 0.000000 10.000000 
Rope3_Seg09 0.000000 0.000000 0.000000 0.000000 0.000000 0.000000 10.000000 
R_rear_hand01 0.000000 0.000000 0.000000 0.000000 0.000000 0.000000 10.000000 
R_rear_hand02 0.000000 0.000000 0.000000 0.000000 0.000000 0.000000 10.000000 
R_rear_hand03 0.000000 0.000000 0.000000 0.000000 0.000000 0.000000 10.000000 
Rope4_Seg01 0.000000 0.000000 0.000000 0.000000 0.000000 0.000000 10.000000 
Rope4_Seg02 0.000000 0.000000 0.000000 0.000000 0.000000 0.000000 10.000000 
Rope4_Seg03 0.000000 0.000000 0.000000 0.000000 0.000000 0.000000 10.000000 
Rope4_Seg04 0.000000 0.000000 0.000000 0.000000 0.000000 0.000000 10.000000 
Rope4_Seg05 0.000000 0.000000 0.000000 0.000000 0.000000 0.000000 10.000000 
Rope4_Seg06 0.000000 0.000000 0.000000 0.000000 0.000000 0.000000 10.000000 
Rope4_Seg07 0.000000 0.000000 0.000000 0.000000 0.000000 0.000000 10.000000 
Rope4_Seg08 0.000000 0.000000 0.000000 0.000000 0.000000 0.000000 10.000000 
Rope4_Seg09 0.000000 0.000000 0.000000 0.000000 0.000000 0.000000 10.000000 
L_rear_hand01 0.000000 0.000000 0.000000 0.000000 0.000000 0.000000 10.000000 
L_rear_hand02 0.000000 0.000000 0.000000 0.000000 0.000000 0.000000 10.000000 
L_rear_hand03 0.000000 0.000000 0.000000 0.000000 0.000000 0.000000 10.000000 
#Beginning of Data. Separated by tabs
#Fr	Tx	Ty	Tz	Rx	Ry	Rz	SF
[MASTER]
20 0.000000 0.000000 0.000000 0.001660 0.001660 0.001660 0.000000
21 0.000000 0.000000 0.000000 0.001660 0.001660 0.001660 0.000000
[root]
20 -16.502245 -199.343781 1093.534668 -85.747307 -61.785316 -93.080688 1111.678223
21 -16.502245 -199.343781 1093.534668 -85.747337 -61.785347 -93.080734 1111.678223
[chest]
20 -84.512650 -34.090519 0.000000 2.325399 -1.381242 -120.961296 91.129311
21 -84.512650 -34.090519 0.000000 2.318477 -1.369897 -120.815239 91.129311
[L_mid_tent01]
20 27.299500 22.177483 -249.917984 -16.747875 2.123683 132.024887 252.380859
21 27.299500 22.177483 -249.917984 -16.758087 2.131949 132.077408 252.380859
[R_mid_tent01]
20 23.228794 24.509907 226.238495 -175.134201 2.150690 120.834274 228.744751
21 23.228794 24.509907 226.238495 -175.130386 2.143252 120.908035 228.744751
[spine01]
20 -0.361383 -0.195265 0.000000 -0.000001 -0.000007 22.052340 0.410763
21 -0.361383 -0.195265 0.000000 -0.000001 -0.000007 22.052340 0.410763
[Bip01_Neck]
20 165.484543 71.581718 0.000119 175.896118 1.177290 24.871183 180.302734
21 165.484543 71.581718 0.000119 175.896118 1.177290 24.871183 180.302734
[L_humerus]
20 -13.983130 -135.272980 -120.471481 -91.668335 0.804969 -167.458282 181.680161
21 -13.983130 -135.272980 -120.471481 -91.668350 0.804970 -167.458282 181.680161
[R_humerus]
20 -13.983309 -135.273102 125.287651 103.000740 1.729733 -169.272232 184.909012
21 -13.983309 -135.273102 125.287651 103.000740 1.729734 -169.272232 184.909012
[weapon_bone]
20 235.964890 -300.705902 0.000000 0.000000 -89.951546 -128.212341 382.234833
21 235.964890 -300.705902 0.000000 0.000000 -89.951546 -128.212341 382.234833
[Bip01_Head]
20 102.819809 23.735476 5.410404 3.150731 3.423701 -20.839088 105.662476
21 102.819809 23.735474 5.410404 3.150732 3.423701 -20.839092 105.662476
[eye_left_bone]
20 -24.626970 125.451866 -64.772606 0.000000 -90.000000 -99.840431 143.318359
21 -24.626970 125.451866 -64.772606 0.000000 -90.000000 -99.840431 143.318359
[eye_right_bone]
20 -24.626970 125.451866 64.327362 0.000000 -89.960434 80.159386 143.117676
21 -24.626970 125.451866 64.327362 0.000000 -89.960434 80.159386 143.117676
[L_forearm]
20 322.776093 0.000000 -0.000119 0.000017 0.002347 -89.149834 322.776093
21 322.776093 0.000000 -0.000119 0.000017 0.002347 -89.149834 322.776093
[L_front_hand]
20 241.149185 -0.042021 -3.300071 -177.732513 -0.044559 -80.279488 241.171753
21 241.149185 -0.042021 -3.300071 -177.732224 -0.045043 -80.272446 241.171753
[L_weapon_bone]
20 156.183838 0.000000 0.000000 0.000014 0.000007 0.000001 156.183838
21 156.183838 0.000000 0.000000 0.000014 0.000007 0.000001 156.183838
[L_front_hand01_01]
20 86.095154 20.947098 -0.655860 0.405585 -0.442306 -4.620490 88.609184
21 86.095154 20.947098 -0.655860 0.405585 -0.442306 -4.620490 88.609184
[L_front_hand02_01]
20 86.935165 -11.437475 24.513514 116.959450 3.630817 1.495453 91.046425
21 86.935165 -11.437475 24.513514 116.959450 3.630818 1.495453 91.046425
[L_front_hand03_01]
20 86.637497 -14.123976 -20.424902 -118.420097 -4.656303 -0.152527 90.126129
21 86.637497 -14.123976 -20.424902 -118.420097 -4.656303 -0.152527 90.126129
[L_front_hand01_02]
20 71.020905 -0.000179 0.000030 0.000004 -0.000005 -8.379269 71.020905
21 71.020905 -0.000179 0.000030 0.000004 -0.000005 -8.379269 71.020905
[L_front_hand02_02]
20 71.020927 -0.000119 0.000060 -0.000005 -0.000004 -8.379259 71.020927
21 71.020927 -0.000119 0.000060 -0.000005 -0.000004 -8.379259 71.020927
[L_front_hand03_02]
20 71.020905 -0.000060 0.000060 0.000015 -0.000040 -8.379267 71.020905
21 71.020905 -0.000060 0.000060 0.000015 -0.000040 -8.379267 71.020905
[R_forearm]
20 322.776428 -0.000060 0.000030 0.210692 -0.040063 -80.315506 322.776428
21 322.776428 -0.000060 0.000030 0.210697 -0.040036 -80.330055 322.776428
[R_front_hand]
20 238.847015 -0.006795 2.210259 -1.670801 -0.430484 -93.205818 238.857239
21 238.847015 -0.006795 2.210259 -1.670834 -0.430356 -93.197075 238.857239
[R_weapon_bone]
20 155.664093 0.002503 -0.000030 0.003487 0.001180 -90.988930 155.664078
21 155.664093 0.002503 -0.000030 0.003487 0.001180 -90.988930 155.664078
[R_front_hand01_01]
20 87.624611 14.231146 22.918642 -116.960213 3.496675 -1.324139 91.683487
21 87.624611 14.231146 22.918642 -116.960213 3.496675 -1.324139 91.683487
[R_front_hand02_01]
20 89.356956 14.367283 -19.491137 118.419647 -4.257089 0.609827 92.579636
21 89.356956 14.367283 -19.491137 118.419647 -4.257089 0.609827 92.579636
[R_front_hand03_01]
20 87.286232 -22.307278 -0.143439 -0.387970 -0.231462 4.232001 90.091743
21 87.286232 -22.307278 -0.143439 -0.387970 -0.231462 4.232001 90.091743
[R_front_hand01_02]
20 71.020905 0.000060 0.000119 -0.000005 -0.000020 8.379271 71.020905
21 71.020905 0.000060 0.000119 -0.000005 -0.000020 8.379271 71.020905
[R_front_hand02_02]
20 71.020844 -0.000030 -0.000119 0.000000 -0.000021 8.379271 71.020836
21 71.020844 -0.000030 -0.000119 0.000000 -0.000021 8.379271 71.020836
[R_front_hand03_02]
20 71.020905 0.000000 0.000030 -0.000001 -0.000020 8.379275 71.020905
21 71.020905 0.000000 0.000030 -0.000001 -0.000020 8.379275 71.020905
[null_rope01_connect]
20 328.732483 0.000000 -0.000238 109.825706 -73.304703 -90.013672 328.732483
21 328.732483 0.000000 -0.000238 109.798309 -73.297668 -90.036316 328.732483
[Rope1_Seg01]
20 0.000000 0.000000 0.000000 76.344055 13.716533 80.671539 0.000000
21 0.000000 0.000000 0.000000 76.349594 13.615630 80.631126 0.000000
[Rope1_Seg02]
20 139.999863 -0.000179 0.000000 65.015121 -9.192345 41.030586 139.999863
21 139.999863 -0.000179 0.000000 65.109795 -9.143119 40.961075 139.999863
[Rope1_Seg03]
20 139.999924 0.000060 -0.000060 62.502659 18.797640 21.949980 139.999924
21 139.999924 0.000060 -0.000060 62.567902 18.883890 22.010519 139.999924
[Rope1_Seg04]
20 139.999924 -0.000060 -0.000119 13.151259 42.824917 -10.593235 139.999924
21 139.999924 -0.000060 -0.000119 13.018081 42.761105 -10.681581 139.999924
[Rope1_Seg05]
20 139.999832 0.000119 -0.000060 -0.310965 16.397484 -9.317261 139.999832
21 139.999832 0.000119 -0.000060 -0.310117 16.362272 -9.296583 139.999832
[Rope1_Seg06]
20 139.999954 0.000119 -0.000060 -0.362515 6.757958 -3.899715 139.999954
21 139.999954 0.000119 -0.000060 -0.361647 6.745608 -3.892167 139.999954
[Rope1_Seg07]
20 139.999985 0.000060 0.000000 -0.085292 1.598540 -0.914580 139.999985
21 139.999985 0.000060 0.000000 -0.085256 1.596893 -0.912930 139.999985
[Rope1_Seg09]
20 121.602913 0.000119 -0.000089 -89.793175 -1.359789 0.847147 121.602913
21 121.602913 0.000119 -0.000089 -89.793175 -1.359789 0.847147 121.602913
[L_mid_hand01]
20 103.859421 1.038730 8.195221 104.352036 0.341479 -0.444583 104.187431
21 103.859421 1.038730 8.195221 104.352036 0.341479 -0.444583 104.187431
[L_mid_hand02]
20 105.572853 -4.139662 -10.864139 -135.608444 3.905687 -3.381056 106.211075
21 105.572853 -4.139662 -10.864139 -135.608444 3.905687 -3.381056 106.211075
[L_mid_hand03]
20 104.641464 17.579376 -3.913581 -18.761518 -0.324361 2.942912 106.179977
21 104.641464 17.579376 -3.913581 -18.761518 -0.324361 2.942912 106.179977
[null_rope02_connect]
20 328.732849 0.000179 -0.000119 120.108688 84.674652 -90.895088 328.732849
21 328.732849 0.000179 -0.000119 120.124817 84.669800 -90.802933 328.732849
[Rope2_Seg01]
20 0.000076 0.000111 0.000153 -5.439672 50.222485 107.243912 0.000203
21 0.000076 0.000111 0.000153 -5.405206 50.175091 107.289291 0.000203
[Rope2_Seg02]
20 139.999741 -0.000060 -0.000119 -18.060509 -59.616882 -45.534294 139.999756
21 139.999741 -0.000060 -0.000119 -18.075224 -59.699692 -45.761574 139.999756
[Rope2_Seg03]
20 140.000107 0.000030 0.000000 -21.886700 -10.388111 -24.388790 140.000107
21 140.000107 0.000030 0.000000 -21.787287 -10.283864 -24.297558 140.000107
[Rope2_Seg04]
20 139.999802 0.000000 -0.000060 -21.017923 -11.899084 -35.108437 139.999802
21 139.999802 0.000000 -0.000060 -21.025002 -11.900574 -35.177254 139.999802
[Rope2_Seg05]
20 139.999985 -0.000060 0.000119 -9.779822 2.596288 -29.232134 139.999985
21 139.999985 -0.000060 0.000119 -9.737399 2.623592 -29.155804 139.999985
[Rope2_Seg06]
20 139.999893 -0.000030 -0.000119 -1.630731 3.192299 -11.604004 139.999893
21 139.999893 -0.000030 -0.000119 -1.624654 3.188208 -11.580549 139.999893
[Rope2_Seg07]
20 139.999893 0.000060 -0.000060 -0.239558 1.289412 -4.280329 139.999893
21 139.999893 0.000060 -0.000060 -0.239442 1.288190 -4.274137 139.999893
[Rope2_Seg09]
20 121.338966 0.000089 -0.000060 33.793236 -1.359788 -0.847141 121.338966
21 121.338966 0.000089 -0.000060 33.793236 -1.359788 -0.847141 121.338966
[R_mid_hand01]
20 104.680779 11.144459 -10.335981 -47.384258 2.963522 5.452604 105.778534
21 104.680779 11.144459 -10.335981 -47.384258 2.963522 5.452604 105.778534
[R_mid_hand02]
20 104.070427 2.443552 8.231699 75.626297 -2.250001 1.111093 104.424065
21 104.070427 2.443552 8.231699 75.626297 -2.250001 1.111093 104.424065
[R_mid_hand03]
20 106.028137 -11.221827 -5.996406 -164.381912 2.495983 -6.140520 106.788818
21 106.028137 -11.221827 -5.996406 -164.381912 2.495983 -6.140519 106.788818
[spine02]
20 129.756927 0.001550 0.000119 -3.665474 -2.812738 49.725594 129.756927
21 129.756927 0.001550 0.000119 -3.668008 -2.807712 49.780006 129.756927
[spine03]
20 79.115631 0.000000 -0.000119 5.828069 8.599700 54.555485 79.115631
21 79.115631 0.000000 -0.000119 5.830835 8.586245 54.624260 79.115631
[pelvis]
20 169.435242 0.051022 0.000000 -7.837295 -2.962631 15.148556 169.435257
21 169.435242 0.051022 0.000000 -7.829904 -2.961265 15.133194 169.435257
[null_rope03_connect]
20 -1.257226 -2.466202 137.391083 145.178970 -84.057297 -134.625839 137.418976
21 -1.257226 -2.466202 137.391083 145.125961 -84.063934 -134.660797 137.418976
[null_rope04_connect]
20 -1.259640 -2.480268 -137.844437 145.178970 -84.057297 -134.625839 137.872513
21 -1.259640 -2.480268 -137.844437 145.125961 -84.063934 -134.660797 137.872513
[Rope3_Seg01]
20 0.000010 0.000038 -0.000114 -168.187195 73.128616 -104.633430 0.000121
21 0.000010 0.000038 -0.000114 -168.135223 73.077904 -104.599663 0.000121
[Rope3_Seg02]
20 139.999924 -0.000119 0.000060 -11.394999 -20.228251 12.180174 139.999924
21 139.999924 -0.000119 0.000060 -11.428525 -20.260540 12.215679 139.999924
[Rope3_Seg03]
20 139.999924 -0.000119 0.000119 -21.242001 -46.868256 24.189219 139.999924
21 139.999924 -0.000119 0.000119 -21.293068 -46.918915 24.243536 139.999924
[Rope3_Seg04]
20 139.999924 0.000119 0.000000 -0.338844 -22.769581 4.271648 139.999924
21 139.999924 0.000119 0.000000 -0.330705 -22.742907 4.261318 139.999924
[Rope3_Seg05]
20 139.999924 -0.000238 0.000060 8.910418 -63.004398 17.083021 139.999924
21 139.999924 -0.000238 0.000060 8.909050 -63.052277 17.126019 139.999924
[Rope3_Seg06]
20 139.999893 -0.000119 -0.000060 11.461679 -39.831352 26.260031 139.999893
21 139.999893 -0.000119 -0.000060 11.455534 -39.766060 26.235802 139.999893
[Rope3_Seg07]
20 139.999771 0.000060 -0.000119 2.874433 -5.015177 5.849562 139.999771
21 139.999771 0.000060 -0.000119 2.872103 -5.007931 5.842883 139.999771
[Rope3_Seg08]
20 139.999985 -0.000060 0.000000 1.457597 -1.914420 2.487173 139.999985
21 139.999985 -0.000060 0.000000 1.456051 -1.912145 2.483928 139.999985
[Rope3_Seg09]
20 90.185997 -0.000179 -0.000060 89.793228 -1.359877 -0.847183 90.185997
21 90.185997 -0.000179 -0.000060 89.793228 -1.359877 -0.847183 90.185997
[R_rear_hand01]
20 103.366196 -6.073594 -10.757982 -156.049316 6.070419 -2.795869 104.101845
21 103.366196 -6.073594 -10.757982 -156.049316 6.070419 -2.795869 104.101845
[R_rear_hand02]
20 100.509819 12.039542 -7.992327 -38.708435 1.958051 5.461186 101.543350
21 100.509819 12.039542 -7.992327 -38.708439 1.958052 5.461187 101.543350
[R_rear_hand03]
20 101.539970 5.215704 5.435467 84.307625 -2.361032 4.099037 101.819031
21 101.539970 5.215704 5.435467 84.307632 -2.361033 4.099039 101.819031
[Rope4_Seg01]
20 0.000005 0.000047 -0.000182 83.803581 76.728722 -77.122475 0.000188
21 0.000004 0.000046 -0.000183 83.729668 76.666031 -77.173561 0.000189
[Rope4_Seg02]
20 139.999985 0.000060 0.000119 5.214045 5.949645 -15.116787 139.999985
21 139.999985 0.000060 0.000119 5.220042 5.961379 -15.134397 139.999985
[Rope4_Seg03]
20 139.999924 0.000000 -0.000238 4.750301 11.865467 -50.162148 139.999924
21 139.999924 0.000000 -0.000238 4.742099 11.887552 -50.267647 139.999924
[Rope4_Seg04]
20 139.999985 0.000000 0.000119 -2.980470 2.940536 -35.554028 139.999985
21 139.999985 0.000000 0.000119 -2.983666 2.932831 -35.491512 139.999985
[Rope4_Seg05]
20 139.999802 -0.000060 -0.000119 -9.668931 6.470688 -32.335560 139.999802
21 139.999802 -0.000060 -0.000119 -9.692227 6.484133 -32.382755 139.999802
[Rope4_Seg06]
20 139.999924 0.000000 0.000060 -21.921169 14.915317 -47.588455 139.999924
21 139.999924 0.000000 0.000060 -21.905226 14.925367 -47.543621 139.999924
[Rope4_Seg07]
20 139.999802 0.000000 0.000000 -5.479991 9.673175 -14.274824 139.999802
21 139.999802 0.000000 0.000000 -5.467880 9.658205 -14.245328 139.999802
[Rope4_Seg08]
20 139.999924 0.000000 0.000119 -2.363702 2.452947 -3.040772 139.999924
21 139.999924 0.000000 0.000119 -2.359197 2.443429 -3.027602 139.999924
[Rope4_Seg09]
20 90.185791 0.000060 0.000060 -135.617828 2.228885 0.850567 90.185791
21 90.185791 0.000060 0.000060 -135.617828 2.228885 0.850567 90.185791
[L_rear_hand01]
20 101.696655 -8.392275 -7.654577 -38.746349 0.246096 177.290207 102.329041
21 101.696655 -8.392275 -7.654577 -38.746349 0.246096 177.290207 102.329041
[L_rear_hand02]
20 102.726799 -1.568258 5.773216 84.314880 -1.139137 176.250763 102.900848
21 102.726799 -1.568258 5.773216 84.314865 -1.139137 176.250763 102.900848
[L_rear_hand03]
20 104.552910 9.721220 -10.420293 -155.747955 -4.630845 179.564758 105.519653
21 104.552910 9.721220 -10.420293 -155.747955 -4.630845 179.564758 105.519653
